<svg xmlns="http://www.w3.org/2000/svg" version="1.1" viewBox="0 0 1600 1600" width="1280" height="1280">
<path transform="translate(0)" d="m0 0h1600v1600h-1600v-1600z" fill="#ffffff"/>
<path transform="translate(0)" d="m0 0h1600v1600h-1600v-1600zm722 184c-0.754 0.0849-1.51 0.17-2.28 0.257-46.4 5.27-91.5 15.7-136 30.1-0.736 0.236-1.47 0.473-2.23 0.717-9.36 3.03-18.5 6.49-27.5 10.3-3.54 1.49-7.12 2.87-10.7 4.22-6.78 2.58-13.3 5.56-19.9 8.64-0.913 0.426-0.913 0.426-1.84 0.861-10.7 5-21.2 10.3-31.5 16l-3.01 1.63c-24.3 13.2-48.3 27.3-70.7 43.6-1.14 0.826-1.14 0.826-2.3 1.67-16.7 12.2-33.2 24.7-48.4 38.8-4.38 3.97-8.99 7.64-13.6 11.3-3.89 3.15-7.48 6.45-11 10-1.83 1.82-3.66 3.64-5.49 5.46-1.59 1.58-3.17 3.16-4.75 4.73-1.08 1.08-2.16 2.15-3.25 3.23-6.06 6.01-12 12.1-17.5 18.6-1.06 1.22-2.12 2.43-3.18 3.64-13.9 16-27.2 32.3-39.8 49.4-0.724 0.972-1.45 1.94-2.2 2.95-4.35 5.89-4.35 5.89-8.05 12.2-1.75 2.88-1.75 2.88-3.6 3.55-2.16 0.329-4.18 0.457-6.36 0.462-1.25 0.00636-1.25 0.00636-2.53 0.0129-0.913-3.86e-4 -1.83-7.72e-4 -2.77-0.00117-0.974 0.00353-1.95 0.00705-2.95 0.0107-3.27 0.0107-6.54 0.0144-9.82 0.0181-2.34 0.0063-4.68 0.0131-7.03 0.0203-5.05 0.0147-10.1 0.0264-15.1 0.0359-7.3 0.0141-14.6 0.0351-21.9 0.0584-11.8 0.0379-23.7 0.0729-35.5 0.105-0.709 0.0019-1.42 0.0038-2.15 0.00576-10.1 0.0269-20.1 0.0507-30.2 0.0734-0.71 0.0016-1.42 0.00319-2.15 0.00484-0.709 0.00159-1.42 0.00319-2.15 0.00483-11.8 0.0267-23.6 0.0611-35.4 0.102-7.93 0.027-15.9 0.0447-23.8 0.056-4.93 0.00909-9.85 0.0264-14.8 0.0462-2.29 0.0075-4.58 0.0116-6.88 0.012-3.12 0.00107-6.23 0.0143-9.35 0.0306-0.917-0.00262-1.83-0.00523-2.78-0.00793-4.72-0.194-4.72-0.194-8.47 2.28-0.302 2.61-0.302 2.61-0.247 5.7-0.00419 1.21-0.00839 2.43-0.0127 3.68 0.00548 1.35 0.0112 2.7 0.017 4.05-0.00107 1.42-0.00301 2.83-0.00575 4.25-0.00486 3.86 0.00282 7.71 0.013 11.6 0.00877 4.03 0.00702 8.05 0.00664 12.1 9.37e-4 6.76 0.00963 13.5 0.0233 20.3 0.0157 7.83 0.021 15.7 0.0203 23.5-6.09e-4 7.52 0.00449 15 0.0128 22.6 0.00354 3.21 0.00536 6.41 0.00589 9.62 1e-3 3.77 0.00708 7.54 0.0172 11.3 0.00293 1.39 0.00415 2.78 0.00357 4.16-4.87e-4 1.89 0.00576 3.77 0.0124 5.66 0.00168 1.06 0.00335 2.12 0.00508 3.21-0.138 2.32-0.138 2.32 1.13 3.37 2.14 0.109 4.28 0.147 6.42 0.158 0.679 0.00494 1.36 0.00988 2.06 0.015 2.29 0.0154 4.58 0.0238 6.87 0.0321 1.64 0.00957 3.27 0.0196 4.91 0.03 4.45 0.0271 8.91 0.0481 13.4 0.068 4.65 0.0218 9.3 0.0492 13.9 0.0761 8.81 0.05 17.6 0.0949 26.4 0.138 10 0.0493 20.1 0.104 30.1 0.16 20.6 0.114 41.3 0.221 61.9 0.323-0.466 1.43-0.466 1.43-0.942 2.88-1.18 3.61-2.35 7.21-3.52 10.8-0.503 1.55-1.01 3.09-1.51 4.64-17.6 53.9-29.3 112-30 169-0.0151 1.05-0.0301 2.09-0.0457 3.17-0.245 17.9-0.212 35.9 0.0457 53.8 0.0125 0.933 0.025 1.87 0.0378 2.83 0.427 29.1 4.87 57.5 9.96 86.2 0.137 0.777 0.275 1.55 0.417 2.36 9.24 51.9 26.7 103 48.6 151 0.417 0.916 0.835 1.83 1.27 2.78 5.89 12.9 12.4 25.3 19.3 37.6 1.32 2.39 2.63 4.79 3.92 7.19 10.5 19.3 22.7 37.6 35.5 55.4 0.583 0.811 1.17 1.62 1.77 2.46 11 15.2 22.7 29.7 34.8 43.9 1.5 1.76 2.99 3.52 4.47 5.28 4.86 5.74 9.74 11.3 15.1 16.6 1.82 1.82 3.49 3.7 5.16 5.66 4.27 4.95 8.75 9.77 13.6 14.1h2v2h2v2h2v2c1.65 1.67 1.65 1.67 3.75 3.38 2.32 1.96 4.5 3.88 6.62 6.06 1.49 1.79 1.49 1.79 3.62 1.56v2c2.11 1.78 4.23 3.46 6.44 5.12 4.08 3.13 8.09 6.25 11.9 9.75 5.57 5.07 11.6 9.5 17.6 14 3.04 2.3 6 4.66 8.93 7.09 6.88 5.55 14.3 10.4 21.6 15.3 2.4 1.62 4.8 3.24 7.19 4.86 8.69 5.87 17.5 11.5 26.5 16.8 2.26 1.34 4.49 2.73 6.72 4.11 63.1 38.7 134 64.2 207 77.6 1.91 0.353 3.81 0.712 5.72 1.07 83.4 15.5 169 13 258-5.71l3.36-0.719c5.92-1.29 11.8-2.74 17.6-4.28 1.04-0.267 2.09-0.534 3.16-0.81 18.3-4.7 35.9-10.5 53.6-17 3.42-1.24 6.86-2.42 10.3-3.58 37.9-12.9 74.9-32.7 109-53.6 0.821-0.501 1.64-1 2.49-1.52 11.1-6.78 21.7-14 32.2-21.8 2.42-1.78 4.85-3.55 7.28-5.32 8.55-6.24 16.9-12.6 25-19.4 1.83-1.5 3.66-3 5.5-4.5l2.77-2.27c1.77-1.45 3.55-2.88 5.34-4.3 5.28-4.22 10.3-8.62 15.2-13.2 0.648-0.606 1.3-1.21 1.96-1.84 6.85-6.44 13.5-13.1 20.2-19.7 2.03-2.04 4.07-4.07 6.11-6.1 1.32-1.32 2.64-2.65 3.96-3.97 0.595-0.593 1.19-1.19 1.8-1.8 4.24-4.26 8.22-8.72 12.1-13.3 1.03-1.19 2.07-2.38 3.11-3.57 2.74-3.16 5.47-6.32 8.21-9.48 1.61-1.86 3.23-3.72 4.84-5.57 21.1-24.4 40-51.2 56.4-79 0.995-1.68 2-3.35 3-5.02 18.7-31.1 34.7-63.4 47.4-97.4l1.19-3.14c17.2-45.9 28.7-93.3 35.4-142 0.396-2.76 0.84-5.51 1.31-8.26 8.5-51.6 6.83-112-0.875-164-0.0984-0.666-0.197-1.33-0.298-2.02-4.37-29.5-10-58.6-17.8-87.4-0.202-0.753-0.403-1.51-0.611-2.28-2.49-9.23-5.23-18.3-8.44-27.3-1.38-3.97-1.88-6.65-1.88-10.9 54.4-0.33 109-0.66 165-1 0.0412-23.9 0.0825-47.8 0.125-72.4 0.0273-11.3 0.0273-11.3 0.0552-22.9 0.00669-6.75 0.00669-6.75 0.0107-13.5 0.00187-3.01 0.00939-6.03 0.0203-9.04 0.0137-3.84 0.0178-7.68 0.015-11.5 5.96e-4 -1.41 0.00459-2.82 0.0123-4.24 0.00988-1.9 0.00637-3.8 0.00208-5.7 0.00184-1.07 0.00369-2.13 0.00559-3.23 0.00521-2.68 0.00521-2.68-2.25-4.51-3.12-0.195-6.16-0.263-9.28-0.245-0.974-0.00226-1.95-0.00453-2.95-0.00686-3.29-0.00532-6.57 0.00356-9.85 0.0122-2.35-0.00111-4.69-0.00317-7.04-0.0061-5.06-0.00473-10.1-0.00359-15.2 0.00178-8 0.00759-16-0.00301-24-0.0172-2.74-0.0046-5.47-0.00905-8.21-0.0134-0.684-0.0011-1.37-0.0022-2.07-0.00333-7.79-0.0122-15.6-0.0197-23.4-0.0257-0.712-5.48e-4 -1.42-0.0011-2.16-0.00166-11.5-0.00846-23.1-0.00512-34.6 8.15e-4 -11.8 0.00562-23.7-0.00791-35.5-0.0376-7.96-0.0191-15.9-0.0153-23.9 0.00417-4.95 0.00687-9.9-0.00705-14.8-0.0269-2.3-0.00506-4.6-0.00153-6.9 0.0111-3.13 0.016-6.27 0.00153-9.4-0.0207-0.914 0.012-1.83 0.0241-2.77 0.0365-4.46-0.0646-6.29-0.184-9.88-3.04-1.99-2.59-3.83-5.18-5.57-7.93-11-16.9-23.9-32.7-37-48-1.46-1.7-2.91-3.41-4.36-5.12-1-1.18-2-2.35-3-3.53-0.429-0.509-0.858-1.02-1.3-1.54-9.05-10.6-18.7-20.6-28.6-30.5-1.73-1.74-3.46-3.48-5.18-5.22-5.97-6-12-11.6-18.7-16.9-2.75-2.2-5.32-4.51-7.89-6.92-4.1-3.77-8.3-7.33-12.7-10.8-2.03-1.6-4.05-3.21-6.05-4.84-23.5-19.1-48.5-36.2-74.7-51.3-1.32-0.766-1.32-0.766-2.66-1.55-48.9-28.3-100-51-155-65.6-3.15-0.848-6.28-1.73-9.42-2.63-30.8-8.6-63.1-14-94.8-17.2-1.05-0.11-1.05-0.11-2.12-0.221-44.3-4.56-89.6-4.84-134 0.221z" fill="#fbfdfd"/>
<path transform="translate(587,631)" d="m0 0c0.858 0.365 1.72 0.73 2.6 1.11 17.7 7.66 32.9 18 47.6 30.4 2.51 2.1 5.09 4.13 7.65 6.17 8.14 6.67 15.4 14.2 22.1 22.3 0.589 0.688 1.18 1.38 1.79 2.09 6.77 8.14 12.5 17 18.2 25.9 0.414 0.652 0.829 1.3 1.26 1.98 12.3 19.7 20.6 42.9 24.9 65.7 0.155 0.812 0.31 1.62 0.47 2.46 3.37 19.2 3.63 38.5 3.57 57.9-0.00169 2.76-3.33e-4 5.52 8.85e-4 8.29 0.00104 5.9-0.00514 11.8-0.0165 17.7-0.0164 8.53-0.0215 17.1-0.024 25.6-0.00436 13.8-0.0176 27.7-0.0366 41.5-0.0184 13.4-0.0325 26.9-0.041 40.3-5.25e-4 0.831-0.00105 1.66-0.00159 2.52-0.00261 4.17-0.00514 8.34-0.00762 12.5-0.0207 34.5-0.0558 69-0.101 103 1.21-0.00222 2.42-0.00444 3.67-0.00673 11.6-0.0206 23.3-0.0354 34.9-0.0451 5.97-0.00514 11.9-0.0121 17.9-0.0236 29.5-0.0557 59 0.151 88.5 1.08-9.22e-4 -1.28-0.00184-2.56-0.00279-3.88-0.0218-30.6-0.0382-61.2-0.0483-91.7-0.00125-3.78-0.00254-7.57-0.00387-11.4-2.62e-4 -0.753-5.25e-4 -1.51-7.95e-4 -2.28-0.00432-12.1-0.0122-24.2-0.0214-36.3-0.00943-12.5-0.0149-25-0.0169-37.4-0.00124-6.99-0.00417-14-0.0116-21-0.0521-50.4-0.0521-50.4 0.534-72.1 0.0184-0.718 0.0368-1.44 0.0558-2.17 0.289-10.8 1.14-21.2 3.52-31.8 0.17-0.786 0.34-1.57 0.516-2.38 7.75-35.3 23.4-67.9 46.5-95.6 0.485-0.592 0.969-1.18 1.47-1.79 10-12.2 21.3-22.3 33.9-31.9 1.51-1.17 3-2.37 4.49-3.57 29.7-23.4 66.8-35.8 104-39.5 1.94-0.192 1.94-0.192 3.92-0.387 53.6-4.87 109 10.9 151 45.5 2.59 2.19 5.13 4.43 7.68 6.67 0.724 0.614 1.45 1.23 2.2 1.86 10.6 9.02 19.5 19 27.8 30.1 0.491 0.658 0.983 1.32 1.49 1.99 11.3 15.2 20.5 31.4 27.5 49 0.438 1.09 0.877 2.18 1.33 3.3 13.9 36.6 17 77 12.2 116-0.438 3.55-0.644 7.09-0.8 10.7-0.482 10.5-2.1 20.6-3.99 30.9-0.32 1.78-0.64 3.55-0.959 5.33-3.6 19.9-7.87 39.2-14 58.5-0.911 2.93-1.74 5.88-2.56 8.85-13.1 46.8-36.7 93.5-65.2 133-0.515 0.716-1.03 1.43-1.56 2.17-6.67 9.26-13.5 18.3-20.9 26.9-2.37 2.74-4.67 5.53-6.95 8.34-7.83 9.59-15.9 18.9-24.3 28-0.602 0.65-1.2 1.3-1.82 1.97-4.23 4.51-8.74 8.57-13.4 12.6-1.61 1.45-3.21 2.91-4.81 4.38-4.32 3.9-8.77 7.6-13.3 11.3-2.48 2.03-4.9 4.1-7.32 6.2-8.79 7.59-18.1 14.4-27.6 21.2-0.603 0.436-1.21 0.872-1.83 1.32-8.69 6.25-17.7 11.8-26.9 17.3-2.08 1.25-4.15 2.51-6.22 3.78-36.3 22-75.5 38.3-116 50.6-1.32 0.411-2.64 0.822-3.95 1.23-9.03 2.73-18.2 4.5-27.5 6.27-3.32 0.642-6.63 1.32-9.94 2-4.21 0.857-8.42 1.68-12.6 2.5-1.36 0.263-1.36 0.263-2.75 0.532-41.2 7.87-83.5 7.5-125 5.47-0.952-0.0432-1.9-0.0864-2.88-0.131-62-3.11-126-23.2-181-51.7-2.73-1.41-5.47-2.79-8.21-4.17-11.9-6.04-23.3-12.4-34.4-19.9-2.3-1.54-4.65-3-7.01-4.45-22-14-42.2-30.2-61.5-47.7-1.94-1.75-3.91-3.47-5.89-5.18-10.7-9.38-20.9-19.1-30.3-29.8-0.878-0.988-0.878-0.988-1.77-2-1.09-1.23-2.17-2.47-3.24-3.71-1.6-1.85-3.22-3.68-4.84-5.52-7.64-8.66-14.8-17.6-21.7-26.9-1.27-1.68-2.55-3.36-3.83-5.03-24.8-32.4-44-69.3-59.6-107-0.369-0.868-0.738-1.74-1.12-2.63-5.17-12.2-9.3-24.5-13-37.2-0.946-3.25-1.93-6.48-2.91-9.72-16.1-53.6-27.5-118-16-173 0.198-0.973 0.396-1.95 0.6-2.95 1.32-6.39 2.78-12.7 4.4-19.1l0.533-2.1c10.3-39.2 35.5-78.8 67.5-104 1.69-1.44 3.38-2.87 5.06-4.31 60.9-49.6 147-61.7 219-30.7z" fill="#fbfdfd"/>
<path transform="translate(790 327)" d="m0 0c1.77 0.0019 1.77 0.0019 3.57 0.00385 24.8 0.0509 48.8 1.65 73.4 5.06 0.896 0.123 1.79 0.246 2.71 0.372 11.1 1.54 21.7 3.65 32.5 6.75 1.58 0.408 3.17 0.808 4.75 1.2 1.26 0.307 2.51 0.614 3.81 0.93 1.92 0.468 1.92 0.468 3.88 0.945 3.56 0.93 3.56 0.93 6.39 1.91 3.12 1 6.15 1.64 9.37 2.24 9.12 1.91 17.7 5.03 26.5 8.21 0.85 0.307 1.7 0.615 2.58 0.931 15.2 5.52 30.1 11.6 44.7 18.6 0.772 0.368 1.54 0.736 2.34 1.11 3.92 1.88 7.79 3.84 11.6 5.84 2.24 1.16 4.48 2.28 6.73 3.41 20.1 10.2 39.4 21.9 57.3 35.6 1.85 1.34 3.7 2.67 5.56 4 9.85 7.17 19.3 14.8 28.5 22.8 4.02 3.49 8.15 6.77 12.5 9.92 0.487 0.431 0.975 0.861 1.48 1.3v2c0.959 0.34 0.959 0.34 1.94 0.688 2.06 1.31 2.06 1.31 2.69 3.89 0.122 0.798 0.245 1.6 0.371 2.42-1.22 0.00547-1.22 0.00547-2.46 0.011-7.79 0.0385-15.6 0.096-23.4 0.173-4 0.0388-8 0.0713-12 0.0871-20.1 0.0845-39.4 1.21-59.2 4.3-3.47 0.498-6.94 0.833-10.4 1.09-36.3 2.69-74.7 16.5-107 33.4-1.97 1.02-3.95 1.99-5.94 2.96-8.64 4.2-16.8 8.85-24.9 14-1.28 0.782-2.56 1.56-3.84 2.34-9.43 5.75-18.4 12-27.2 18.7-0.611 0.466-1.22 0.932-1.85 1.41-6.96 5.33-13.7 10.8-20.1 16.8-2.09 1.78-2.09 1.78-4.23 2.77-1.99 0.844-1.99 0.844-2.7 2.79-1.42 2.73-3.2 4.45-5.4 6.59-1.28 1.25-1.28 1.25-2.58 2.53-0.901 0.877-1.8 1.75-2.73 2.66-6.95 6.86-13.6 13.6-19.4 21.4-1.35 1.73-2.71 3.46-4.06 5.19-0.981 1.27-1.96 2.54-2.94 3.81-3.1-0.0326-5.26-0.327-7.6-2.45-1.69-1.99-3.27-4.02-4.84-6.11-1.15-1.47-2.3-2.95-3.45-4.42-0.542-0.703-1.08-1.41-1.64-2.13-2.67-3.43-5.56-6.66-8.47-9.89-0.636-0.727-1.27-1.45-1.93-2.2-9.87-11.2-20.3-21.6-32.1-30.8-1.26-1.02-2.51-2.04-3.77-3.06-19.3-15.5-40.2-28.6-62.2-39.9-0.739-0.385-1.48-0.77-2.24-1.17-15.1-7.82-30.5-14.4-46.6-19.8-0.765-0.255-1.53-0.509-2.32-0.772-23.6-7.79-47.5-13.5-72.2-15.7-4.86-0.446-9.63-1.19-14.4-2.07-9.79-1.52-19.6-1.77-29.5-2.03-1.56-0.0431-3.11-0.0865-4.67-0.13-4.06-0.113-8.12-0.222-12.2-0.33-4.16-0.111-8.31-0.227-12.5-0.342-8.13-0.225-16.3-0.445-24.4-0.662 0-3 0-3 1.21-4.58 3.86-3.74 7.85-7.1 12.1-10.3 3.31-2.6 6.47-5.33 9.65-8.08 5.22-4.5 10.5-8.89 16-13 0.895-0.666 0.895-0.666 1.81-1.35 39.5-29.2 84.3-57.2 132-71.5 3.38-1.11 6.34-2.53 9.5-4.15 1.53-0.525 3.07-1.01 4.62-1.44 3.82-1.09 7.56-2.31 11.3-3.62 4.67-1.58 9.2-2.57 14.1-3.35 3.14-0.618 6.08-1.49 9.13-2.47 18.6-5.82 37.6-8.85 56.9-11.4 0.953-0.129 1.91-0.258 2.89-0.391 21-2.82 41.7-3.51 62.9-3.48z" fill="#fbfdfd"/>
<path transform="translate(1104,723)" d="m0 0c1.21 0.329 2.41 0.657 3.65 0.996 29 8.81 48.7 28.1 63.1 54.4 13.4 26.7 12.1 55.6 3.1 83.3-1.7 4.81-4.05 9.02-6.81 13.3-0.51 0.883-1.02 1.77-1.55 2.68-9.24 15.6-23.2 28.5-39.5 36.3-0.995 0.513-1.99 1.03-3.02 1.55-21.9 10.8-47.5 12.4-71 6.45-1.12-0.278-2.23-0.557-3.38-0.844-14.2-3.96-26.1-11.2-37.6-20.2-0.834-0.647-1.67-1.29-2.53-1.96-21.4-17.8-30.8-44.6-33.9-71.5-0.599-15.1 2.97-31.9 9.38-45.6 0.406-0.951 0.812-1.9 1.23-2.88 7.75-17 21-32.1 36.8-42.1 0.88-0.577 0.88-0.577 1.78-1.17 4.82-3.11 9.73-5.65 15-7.96 0.784-0.346 1.57-0.692 2.37-1.05 19.6-8.43 42.4-9.49 62.9-3.83z" fill="#ffffff"/>
<path transform="translate(529,723)" d="m0 0c1.2 0.317 2.41 0.634 3.65 0.961 14.3 4.22 27.3 12.1 38.4 22 0.646 0.553 1.29 1.11 1.96 1.68 17.6 16.2 29.6 40.6 31 64.3 1.24 30.3-4.03 55.4-24 79-0.491 0.625-0.982 1.25-1.49 1.89-14.7 18.4-40.6 29.5-63.5 32.1-32.9 1.69-60.6-6.9-85.3-29.2-1.73-1.85-1.73-1.85-1.73-3.85h-2c-18.3-18.9-27.6-46.3-27.2-72.3 0.807-24.8 13.1-52.1 31-69.5 28.2-24.2 61.9-37.6 99.2-27.3z" fill="#ffffff"/>
</svg>