<svg xmlns="http://www.w3.org/2000/svg" version="1.0" viewBox="163 161.1 217 214.9"><path d="M249.6 162.6c-8.4 1.8-20.6 5.9-26.1 8.6-13.3 6.8-28.6 19.2-36.7 29.8l-5.3 6.9h-9.2l-9.3.1v26h5.8l-1.5 4.2c-4.3 12.5-5.5 34.3-2.8 50.1 3.5 20 13.5 39.9 27.8 55.4 9.9 10.7 28 22.7 41.2 27.1 14.6 4.9 16.6 5.2 37 5.2 20.5 0 24.6-.6 38-5.2 34.9-12 62.4-45 69-82.8 2.6-14.9 1.6-35.6-2.5-49-1.4-4.9-1.4-5 2-5h3v-26h-9.7l-9.8-.1-4.5-6c-14.5-19.5-38-33.9-64.2-39.3-9.9-2-32.6-2-42.2 0zm44.3 26.4c8.7 2.4 16.6 6.3 24.8 11.8 9.7 6.6 9.7 6.8-1 7.5-16.3 1.1-29.7 6.8-40.4 17.2l-6.3 6.1-6.2-6.1c-10.9-10.5-24.1-16-41.2-17.3l-9.5-.7 5.7-4.2c11.1-8.3 24-14 37-16.3 8.1-1.5 28.8-.4 37.1 2zM238 237.1c6.9 3.2 14.2 10.5 17.8 17.8l2.7 5.6.3 27.2.4 27.3h23.7l.3-27.3.3-27.2 2.8-5.7c5.9-12 17-19.7 29.7-20.6 8.9-.6 15.8 1.2 22.8 5.9 11.1 7.3 16.9 19.5 15.9 33-1.6 21.1-9.6 39.5-23.2 53.3-16.8 17.1-37 25.6-60.5 25.6-27 0-51.2-12.3-68.1-34.6-8.6-11.2-15.9-33.1-15.9-47.2 0-15.4 9.8-29.2 24.5-34.5 7.2-2.6 19.2-1.9 26.5 1.4z"/><path d="M216.5 251.9c-7.8 3.5-11.4 10.4-10.2 19.3 1.3 9.4 10.9 15.9 20.4 13.8 9.5-2.2 14.8-11 12.9-21.4-1.3-6.6-9.7-13.6-16.6-13.6-1.4 0-4.3.9-6.5 1.9zm95.8 0c-2.4 1.2-5.5 3.7-7.3 6.3-2.9 3.9-3.1 4.8-2.8 10.4.6 10.2 7.2 16.6 16.8 16.6 5.8 0 10.1-2.1 13.7-6.9 2.4-3.1 2.8-4.5 2.8-10.3 0-5.8-.4-7.1-2.9-10.4-3-4-9.4-7.6-13.6-7.6-1.4 0-4.4.9-6.7 1.9z"/></svg>